<?xml version="1.0" encoding="UTF-8"?>
<svg id="Layer_2" data-name="Layer 2" xmlns="http://www.w3.org/2000/svg" xmlns:xlink="http://www.w3.org/1999/xlink" viewBox="0 0 603.34 201.87">
  <defs>
    <style>
      .cls-1 {
        fill: url(#linear-gradient);
      }

      .cls-1, .cls-2, .cls-3, .cls-4 {
        stroke-width: 0px;
      }

      .cls-2 {
        fill: url(#linear-gradient-2);
      }

      .cls-3 {
        fill: url(#linear-gradient-3);
      }

      .cls-4 {
        fill: #fff;
      }
    </style>
    <linearGradient id="linear-gradient" x1="564.72" y1="30.58" x2="407.89" y2="199.18" gradientUnits="userSpaceOnUse">
      <stop offset="0" stop-color="#ff2c72"/>
      <stop offset="1" stop-color="#c518ef"/>
    </linearGradient>
    <linearGradient id="linear-gradient-2" x1="600.23" y1="63.61" x2="443.39" y2="232.2" xlink:href="#linear-gradient"/>
    <linearGradient id="linear-gradient-3" x1="631.23" y1="92.46" x2="474.4" y2="261.05" xlink:href="#linear-gradient"/>
  </defs>
  <g id="Layer_1-2" data-name="Layer 1">
    <g>
      <g>
        <path class="cls-4" d="M63.89,38.52h-27.65C12.2,38.52,0,49.97,0,72.54v129.33h10.61v-39.66h57.58c13.13,0,23.01-4.93,29.39-14.66,3.19-4.97,4.81-12.1,4.81-21.18v-54.04c0-22.43-12.95-33.81-38.5-33.81ZM91.33,126.83c0,16.68-7.56,24.78-23.14,24.78H10.61v-78.38c0-16.07,8.68-23.87,26.54-23.87h26.97c18.31,0,27.21,7.58,27.21,23.19v54.28Z"/>
        <path class="cls-4" d="M384.75,70.51v91.7h-10.59v-92.16c0-13.93-8.31-20.69-25.41-20.69h-28.33c-17.4,0-25.86,6.76-25.86,20.69v92.16h-10.61v-91.7c0-21.22,12.27-31.99,36.47-31.99h28.33c23.89,0,36,10.77,36,31.99Z"/>
        <rect class="cls-4" x="125.32" width="10.61" height="162.21"/>
        <path class="cls-4" d="M222.89,38.52h-64.03v10.84h67.68c16.07,0,23.88,7.62,23.88,23.31v5.97h-58.49c-10.12,0-18.26,3.03-24.17,9.03-5.9,5.98-8.9,14.15-8.9,24.26v17.9c0,8.42,2.52,15.53,7.44,21.09,6.22,7.49,15.07,11.29,26.31,11.29h36.03c10.45,0,18.56-3.09,24.1-9.21,5.5-6.07,8.28-14.49,8.28-25.04v-54.04c0-23.49-12.83-35.4-38.13-35.4ZM229.03,151.61h-36.81c-.56,0-1.63-.07-3.55-.43-12.92-2.26-19.2-9.39-19.2-21.8v-17.68c0-12.85,6.05-20.05,18.47-22.03,1.83-.28,3.03-.43,3.6-.43h58.88v40.59c0,14.65-7,21.78-21.39,21.78Z"/>
      </g>
      <g>
        <path class="cls-1" d="M505.78,15.51c2.45-2.46,5.39-3.69,8.78-3.69,4.79,0,8.45,2.01,10.98,6.05,2.39,3.39,5.1,5.1,8.12,5.1s5.61-1.69,8.14-5.09c2.4-3.84,5.75-5.85,10.09-6.03.05,0,1.02.05,1.17.07,3.32.11,6.14,1.26,8.47,3.6,2.46,2.46,3.69,5.4,3.69,8.81,0,6.93,2.45,13.91,7.38,18.82,4.91,4.92,10.64,8.66,17.19,8.66h.58c6.55,0,10.65,1.99,12.29,8.17.89,3.92.13,7.06-2.27,10.59-2.38,3.29-5.92,4.58-10.59,4.46-6.68.26-12.4,2.72-17.19,7.64-4.93,4.79-7.38,10.52-7.38,17.32,0,3.53-1.23,6.5-3.69,8.95-2.45,2.46-5.45,3.67-8.98,3.67s-6.35-1.24-8.79-3.7c-2.46-2.47-3.7-5.45-3.7-9,0-3.28,1.18-6.13,3.51-8.6,2.33-2.46,5.14-3.74,8.41-3.88,6.68.13,12.72-2.2,18.15-6.99,4.91-4.79,7.5-10.78,7.76-17.96.25-6.93-2.2-12.99-7.38-18.15-4.85-4.86-10.58-7.32-17.21-7.4-.24.02-1.74,0-1.96-.02-3.92-.3-6.96-2.05-9.14-5.25-2.65-3.91-5.44-5.86-8.47-5.86-3.22,0-6.24,1.63-8.3,5.26-.05.07-.32.47-.41.6-2.55,3.53-5.99,5.3-10.39,5.3-3.41,0-6.38-1.24-8.84-3.7-2.45-2.45-3.73-5.39-3.73-8.8s1.24-6.52,3.7-8.97Z"/>
        <path class="cls-2" d="M560.93,184.5c-2.47,2.47-5.39,3.7-8.78,3.7-4.81,0-8.46-2.02-10.98-6.05-2.39-3.41-5.11-5.11-8.13-5.11s-5.6,1.72-8.13,5.11c-2.4,3.84-5.76,5.87-10.1,6.05-.03,0-.99.09-1.16.09-3.31-.11-6.14-1.45-8.48-3.79-2.45-2.46-3.69-5.39-3.69-8.79,0-6.93-2.46-14.74-7.37-19.66-4.91-4.91-10.65-9.43-17.21-9.43h-.56c-6.55,0-10.65-1.22-12.29-7.38-.89-3.91-.12-6.67,2.26-10.21,2.4-3.27,5.92-4.39,10.59-4.27,6.68-.24,12.42-2.6,17.21-7.51,4.91-4.79,7.37-10.48,7.37-17.28,0-3.53,1.24-6.46,3.69-8.92,2.46-2.46,5.44-3.67,8.99-3.67s6.33,1.24,8.79,3.7c2.45,2.46,3.68,5.45,3.68,8.99,0,3.28-1.15,6.16-3.5,8.62-2.33,2.46-5.14,3.75-8.41,3.88-6.68-.12-12.73,2.2-18.16,6.99-4.91,4.79-7.5,10.78-7.75,17.96-.27,6.94,2.2,12.99,7.36,18.16,4.85,4.85,10.58,7.32,17.21,7.39.25,0,1.73,0,1.94.03,3.94.3,6.96,2.04,9.13,5.26,2.65,3.89,5.43,5.85,8.44,5.85,3.28,0,6.33-1.89,8.39-5.68l.03-.02c2.57-3.78,6.15-5.46,10.68-5.46,3.4,0,6.4,1.24,8.86,3.69,2.47,2.47,3.75,5.39,3.75,8.8s-1.22,6.52-3.68,8.97Z"/>
        <path class="cls-3" d="M603.32,100.9c-.28,4.05-2.34,7.18-5.6,9.4-3.9,2.66-5.85,5.6-5.85,8.62,0,3.28,1.88,6.05,5.67,8.63,0,0,.77.55,1.2.93,2,1.7,3.3,3.66,3.9,6.1.17.65.28,1.31.34,1.99.02.18.07.81.07,1.44-.01.73-.1,1.47-.14,1.8-.48,3.54-2.21,6.33-5.17,8.34-3.9,2.66-5.85,5.26-5.85,8.27,0,3.29,1.88,5.93,5.67,8.32h0c3.78,2.38,5.49,6.24,5.49,10.78,0,3.41-1.24,6.4-3.7,8.84-2.45,2.47-5.39,3.78-8.79,3.78s-6.53-1.2-8.98-3.66c-2.46-2.45-3.68-5.37-3.68-8.78,0-4.78,2.01-8.43,6.04-10.94,3.4-2.4,5.11-5.11,5.11-8.13,0-2.57-1.33-4.98-4.02-7.25-.19-.18-3.68-2.91-3.79-3.04-1.34-1.37-2.29-2.96-2.81-4.78-.02-.02-.53-1.88-.53-3.75,0-.03-.06-1.19.19-2.33.73-3.59,2.54-6.48,5.86-8.54,3.4-2.39,5.11-5.11,5.11-8.14,0-.11,0-.22-.02-.32-.19-2.74-2.46-4.9-5.24-4.9-.6,0-1.74.28-1.74.28-3.46,1.2-6.61,3.21-9.45,6.06-5.04,5.04-7.49,11.16-7.37,18.35-.12,3.41-1.42,6.27-3.87,8.61-2.47,2.33-5.33,3.5-8.62,3.5-3.52,0-6.52-1.24-8.99-3.7-2.45-2.46-3.67-5.45-3.67-8.98s1.29-6.52,3.88-8.98c2.57-2.46,5.69-3.62,9.35-3.5,6.56-.12,12.3-2.65,17.22-7.56,4.91-5.04,7.37-10.98,7.37-17.78,0-3.4,1.24-6.33,3.69-8.78,2.23-2.24,4.9-3.44,8.02-3.66.32-.03.67-.04,1.01-.04.31,0,.66.01.97.04,3.01.21,5.69,1.42,7.93,3.66,2.31,2.32,3.7,5.06,3.84,8.24,0,.18,0,1.34,0,1.55Z"/>
      </g>
      <rect class="cls-4" x="415.32" y="92.71" width="37.18" height="7.44"/>
    </g>
  </g>
</svg>